<svg width="16" height="16" viewBox="0 0 16 16" fill="none" xmlns="http://www.w3.org/2000/svg">
<path d="M0.75 4.5L4.75 0.5V3H15.25V6H4.75V8.5L0.75 4.5Z" fill="black"/>
<path d="M3.5 11.5865C3.5 10.712 2.827 10 2 10H0.5V15.5H2C2.827 15.5 3.5 14.788 3.5 13.913C3.5 13.453 3.313 13.04 3.016 12.75C3.17023 12.5982 3.29251 12.417 3.37563 12.2172C3.45875 12.0174 3.50104 11.8029 3.5 11.5865V11.5865ZM2 14.6543H1.28125V13.1728H2C2.4135 13.1728 2.75 13.5048 2.75 13.913C2.75 14.3213 2.4135 14.6543 2 14.6543V14.6543ZM2 12.3272H1.28125V10.8457H2C2.4135 10.8457 2.75 11.1783 2.75 11.5865C2.75 11.9948 2.4135 12.3272 2 12.3272Z" fill="black"/>
<path d="M10 14.6543C9.5865 14.6543 9.25 14.3213 9.25 13.913V11.5863C9.25 11.178 9.5865 10.8455 10 10.8455C10.4135 10.8455 10.75 11.178 10.75 11.5863H11.5C11.5 10.712 10.827 10 10 10C9.173 10 8.5 10.712 8.5 11.5865V13.9132C8.5 14.7882 9.173 15.5002 10 15.5002C10.827 15.5002 11.5 14.7882 11.5 13.9132H10.75C10.75 14.3212 10.4135 14.6543 10 14.6543" fill="black"/>
<path d="M15.5 10H14.712L13.7405 12.375H13.25V10H12.5V15.5H13.25V13.125H13.7405L14.712 15.5H15.5L14.394 12.75L15.5 10Z" fill="black"/>
<path d="M6.75 15.5H7.5L6.5 10H5.25L4.5 15.5H5.25L5.4565 13.9853H6.4745L6.75 15.5ZM5.57175 13.1397L5.89275 10.7858L6.32075 13.1397H5.57175Z" fill="black"/>
</svg>
