<svg width="140" height="140" viewBox="0 0 140 140" fill="none" xmlns="http://www.w3.org/2000/svg">
<path d="M10.7692 130H35V107.5H10.7692V130ZM40.3846 130H67.3077V107.5H40.3846V130ZM10.7692 102.5H35V77.5H10.7692V102.5ZM40.3846 102.5H67.3077V77.5H40.3846V102.5ZM10.7692 72.5H35V50H10.7692V72.5ZM72.6923 130H99.6154V107.5H72.6923V130ZM40.3846 72.5H67.3077V50H40.3846V72.5ZM105 130H129.231V107.5H105V130ZM72.6923 102.5H99.6154V77.5H72.6923V102.5ZM43.0769 35V12.5C43.0769 11.8229 42.8105 11.237 42.2776 10.7422C41.7448 10.2474 41.1138 10 40.3846 10H35C34.2708 10 33.6398 10.2474 33.107 10.7422C32.5741 11.237 32.3077 11.8229 32.3077 12.5V35C32.3077 35.6771 32.5741 36.263 33.107 36.7578C33.6398 37.2526 34.2708 37.5 35 37.5H40.3846C41.1138 37.5 41.7448 37.2526 42.2776 36.7578C42.8105 36.263 43.0769 35.6771 43.0769 35ZM105 102.5H129.231V77.5H105V102.5ZM72.6923 72.5H99.6154V50H72.6923V72.5ZM105 72.5H129.231V50H105V72.5ZM107.692 35V12.5C107.692 11.8229 107.426 11.237 106.893 10.7422C106.36 10.2474 105.729 10 105 10H99.6154C98.8862 10 98.2552 10.2474 97.7224 10.7422C97.1895 11.237 96.9231 11.8229 96.9231 12.5V35C96.9231 35.6771 97.1895 36.263 97.7224 36.7578C98.2552 37.2526 98.8862 37.5 99.6154 37.5H105C105.729 37.5 106.36 37.2526 106.893 36.7578C107.426 36.263 107.692 35.6771 107.692 35ZM140 30V130C140 132.708 138.934 135.052 136.803 137.031C134.671 139.01 132.147 140 129.231 140H10.7692C7.85256 140 5.32853 139.01 3.19712 137.031C1.06571 135.052 0 132.708 0 130V30C0 27.2917 1.06571 24.9479 3.19712 22.9688C5.32853 20.9896 7.85256 20 10.7692 20H21.5385V12.5C21.5385 9.0625 22.8566 6.11979 25.4928 3.67188C28.129 1.22396 31.2981 0 35 0H40.3846C44.0865 0 47.2556 1.22396 49.8918 3.67188C52.528 6.11979 53.8462 9.0625 53.8462 12.5V20H86.1538V12.5C86.1538 9.0625 87.472 6.11979 90.1082 3.67188C92.7444 1.22396 95.9135 0 99.6154 0H105C108.702 0 111.871 1.22396 114.507 3.67188C117.143 6.11979 118.462 9.0625 118.462 12.5V20H129.231C132.147 20 134.671 20.9896 136.803 22.9688C138.934 24.9479 140 27.2917 140 30Z" fill="black"/>
</svg>
