<svg width="120" height="120" viewBox="0 0 120 120" fill="none" xmlns="http://www.w3.org/2000/svg">
<rect width="120" height="120" fill="#C4C4C4"/>
<path d="M60 25C40.6719 25 25 40.6719 25 60C25 79.3281 40.6719 95 60 95C79.3281 95 95 79.3281 95 60C95 40.6719 79.3281 25 60 25ZM72.9219 73.2969L67.7656 73.2734L60 64.0156L52.2422 73.2656L47.0781 73.2891C46.7344 73.2891 46.4531 73.0156 46.4531 72.6641C46.4531 72.5156 46.5078 72.375 46.6016 72.2578L56.7656 60.1484L46.6016 48.0469C46.5072 47.9324 46.4548 47.789 46.4531 47.6406C46.4531 47.2969 46.7344 47.0156 47.0781 47.0156L52.2422 47.0391L60 56.2969L67.7578 47.0469L72.9141 47.0234C73.2578 47.0234 73.5391 47.2969 73.5391 47.6484C73.5391 47.7969 73.4844 47.9375 73.3906 48.0547L63.2422 60.1562L73.3984 72.2656C73.4922 72.3828 73.5469 72.5234 73.5469 72.6719C73.5469 73.0156 73.2656 73.2969 72.9219 73.2969Z" fill="#FF0000"/>
</svg>
