<svg width="42" height="32" viewBox="0 0 42 32" fill="none" xmlns="http://www.w3.org/2000/svg">
<path d="M29.7979 13.9482L29.7979 13.9482L29.7966 13.9485C29.7785 13.953 29.7552 13.9531 29.7344 13.9531H12.3672C12.1524 13.9531 11.9766 13.7773 11.9766 13.5625C11.9766 13.5417 11.9767 13.5184 11.9812 13.5003L11.9812 13.5003L11.9814 13.499L14.0228 0.905234L14.0229 0.90511C14.0521 0.714955 14.218 0.578125 14.4086 0.578125H27.693C27.8836 0.578125 28.0494 0.714955 28.0787 0.90511L28.0787 0.905234L30.1201 13.4989C30.1543 13.7141 30.0126 13.9141 29.7979 13.9482ZM16.9984 4H16.9851L16.983 4.01312L15.9268 10.5131L15.9238 10.5312H15.9422H26.1492H26.1676L26.1646 10.5131L25.1135 4.01313L25.1114 4H25.098H16.9984ZM17.1099 18.3739L17.11 18.374L19.1514 30.9677C19.1856 31.1828 19.0439 31.3828 18.8292 31.417L18.8292 31.4169L18.8279 31.4173C18.8098 31.4218 18.7864 31.4219 18.7656 31.4219H1.39844C1.18363 31.4219 1.00781 31.2461 1.00781 31.0312C1.00781 31.0104 1.0079 30.9871 1.01242 30.969L1.01248 30.969L1.01269 30.9677L3.0541 18.374L3.05412 18.3739C3.08337 18.1837 3.24923 18.0469 3.43984 18.0469H16.7242C16.9148 18.0469 17.0807 18.1837 17.1099 18.3739ZM4.96309 27.9819L4.96016 28H4.97852H15.1805H15.1988L15.1959 27.9819L14.1447 21.4819L14.1426 21.4688H14.1293H6.02969H6.01639L6.01426 21.4819L4.96309 27.9819ZM38.9459 18.3739L38.9459 18.374L40.9873 30.9677C41.0215 31.1826 40.8749 31.3828 40.6651 31.417L40.6651 31.4169L40.6638 31.4173C40.6457 31.4218 40.6224 31.4219 40.6016 31.4219H23.2344C23.0196 31.4219 22.8438 31.2461 22.8438 31.0312C22.8438 31.0104 22.8438 30.9871 22.8484 30.969L22.8484 30.969L22.8486 30.9677L24.89 18.374L24.8901 18.3739C24.9193 18.1837 25.0852 18.0469 25.2758 18.0469H38.5602C38.7508 18.0469 38.9166 18.1837 38.9459 18.3739ZM26.799 27.9819L26.7961 28H26.8145H37.0164H37.0348L37.0318 27.9819L35.9807 21.4819L35.9785 21.4688H35.9652H27.8656H27.8523L27.8502 21.4819L26.799 27.9819Z" fill="#FFD700" stroke="black" stroke-width="0.03125"/>
</svg>
