<svg width="16" height="16" viewBox="0 0 16 16" fill="none" xmlns="http://www.w3.org/2000/svg">
<path d="M1.79662 1.49188L13.3101 13.0053C13.5285 13.2238 13.6512 13.5201 13.6512 13.8291C13.6512 14.138 13.5285 14.4343 13.3101 14.6528V14.6528C13.0915 14.8712 12.7952 14.9939 12.4863 14.9939C12.1774 14.9939 11.8811 14.8712 11.6626 14.6528L8.85005 11.7919C8.666 11.605 8.56275 11.3533 8.56255 11.0909V10.9181C8.56258 10.7857 8.53629 10.6546 8.48522 10.5323C8.43415 10.4101 8.35931 10.2993 8.26505 10.2063L7.90193 9.87094C7.77866 9.7572 7.62876 9.67629 7.46602 9.63566C7.30329 9.59503 7.13295 9.59599 6.97068 9.63844V9.63844C6.71479 9.70523 6.44589 9.70394 6.19066 9.6347C5.93543 9.56547 5.70274 9.43069 5.51568 9.24376L2.84599 6.57376C1.26224 4.99001 0.679428 2.59844 1.79662 1.49188Z" stroke="black" stroke-linejoin="round"/>
<path d="M12.5 1L10.0859 3.41406C9.90017 3.59979 9.75282 3.82029 9.65228 4.06297C9.55174 4.30565 9.5 4.56576 9.5 4.82844V5.29281C9.50001 5.35851 9.48707 5.42357 9.46192 5.48427C9.43678 5.54497 9.39991 5.60012 9.35344 5.64656L9 6" stroke="black" stroke-linecap="round" stroke-linejoin="round"/>
<path d="M10 7L10.3534 6.64656C10.3999 6.60009 10.455 6.56322 10.5157 6.53808C10.5764 6.51293 10.6415 6.49999 10.7072 6.5H11.1716C11.4342 6.5 11.6944 6.44826 11.937 6.34772C12.1797 6.24718 12.4002 6.09983 12.5859 5.91406L15 3.5" stroke="black" stroke-linecap="round" stroke-linejoin="round"/>
<path d="M13.75 2.25L11.25 4.75" stroke="black" stroke-linecap="round" stroke-linejoin="round"/>
<path d="M6.25022 11.5L3.13397 14.6337C2.89956 14.8681 2.58168 14.9997 2.25022 14.9997C1.91877 14.9997 1.60088 14.8681 1.36647 14.6337V14.6337C1.13213 14.3993 1.00049 14.0815 1.00049 13.75C1.00049 13.4185 1.13213 13.1007 1.36647 12.8663L4.00022 10.25" stroke="black" stroke-linecap="round" stroke-linejoin="round"/>
</svg>
